<svg width="189" height="37" xmlns="http://www.w3.org/2000/svg"><g fill="none"><g fill="#00C08B"><path d="M28.618 11.288c3.13 4.918 2.458 11.4-1.677 15.536-2.347 2.347-5.476 3.576-8.83 3.576-2.346 0-4.693-.67-6.705-1.9-.112-.112-.335-.335-.335-.559-.112-.223 0-.559.111-.782.112-.224.336-.335.67-.447.224-.112.56 0 .783.112 4.136 2.682 9.612 2.011 12.965-1.453 3.353-3.465 4.024-8.942 1.453-12.965-.335-.447-.112-1.118.335-1.341.224-.112.447-.224.783-.112.111 0 .335.112.447.335z"/><path d="M33.312 28.053c-.224.335-.447.447-.783.447-.223 0-.447-.112-.558-.112-.447-.335-.56-.894-.336-1.453 4.136-6.37 3.353-14.864-2.011-20.23C24.482 1.566 16.212.56 9.953 4.248a1.765 1.765 0 01-1.788 1.788 1.765 1.765 0 01-1.789-1.788c0-1.006.783-1.788 1.789-1.788.223 0 .559 0 .782.112 7.041-4.247 16.318-3.13 22.13 2.682 5.923 6.035 6.929 15.647 2.235 22.8z"/><path d="M10.847 10.73c-3.465 3.464-4.023 8.94-1.453 12.964.335.447.112 1.118-.335 1.341-.112.112-.335.112-.559.112-.335 0-.67-.223-.894-.447-3.018-4.806-2.347-11.288 1.788-15.424 4.135-4.135 10.73-4.805 15.647-1.564.447.335.559.894.335 1.34a1.067 1.067 0 01-1.34.336c-4.248-2.794-9.724-2.235-13.189 1.341z"/><path d="M18.224 14.865a3.124 3.124 0 00-3.13 3.13 3.124 3.124 0 003.13 3.129 3.124 3.124 0 003.129-3.13c0-1.676-1.453-3.13-3.13-3.13zm0 4.359c-.671 0-1.23-.56-1.23-1.118 0-.67.559-1.23 1.23-1.23.67 0 1.117.56 1.117 1.23 0 .559-.559 1.118-1.117 1.118z"/><path d="M29.959 31.853a1.765 1.765 0 01-1.788 1.788c-.224 0-.447 0-.671-.112a18.128 18.128 0 01-9.276 2.571c-4.806 0-9.5-1.9-12.853-5.253-5.924-5.923-7.042-15.423-2.46-22.576.224-.224.448-.336.671-.447.336 0 .56 0 .783.223.223.112.335.335.447.559.112.223 0 .559-.112.782-4.135 6.26-3.13 14.753 2.124 20.006 5.14 5.141 13.3 6.147 19.558 2.459 0-1.006.783-1.788 1.789-1.788 1.005 0 1.788.782 1.788 1.788z"/></g><path d="M45.606 14.306v12.741H48.4V14.306h-2.794zm-5.141-5.477v2.683h13.188V8.829H40.465zm25.147 16.43c-.56.559-1.341 1.006-2.347 1.453-1.006.447-2.012.67-3.018.67a8.288 8.288 0 01-3.8-.894c-1.118-.559-1.9-1.453-2.57-2.459-.56-1.005-.895-2.235-.895-3.576 0-1.565.336-2.794 1.006-3.912.67-1.117 1.453-1.9 2.57-2.459a7.26 7.26 0 013.466-.894c1.117 0 2.235.336 3.129.894a6.454 6.454 0 012.235 2.347c.56 1.006.783 2.124.783 3.465v1.118H55.665c.111 1.23.67 2.235 1.564 2.906.895.67 1.9 1.117 3.242 1.117a4.848 4.848 0 002.347-.559c.558-.335 1.117-.67 1.453-1.005l1.34 1.788zm-5.588-9.724c-1.006 0-1.9.224-2.683.67-.782.448-1.23 1.342-1.565 2.46h7.712v-.224c0-.559-.223-1.117-.559-1.565a3.494 3.494 0 00-1.229-1.005 4.485 4.485 0 00-1.676-.336zm16.764.783c-.223-.112-.335-.112-.67-.224-.224-.112-.56-.112-.783-.112-.559 0-1.117.112-1.676.447-.559.336-1.006.671-1.341 1.23-.336.559-.56 1.117-.56 1.9v7.6h-2.682V13.412h2.683v2.57a4.44 4.44 0 011.788-2.011c.782-.56 1.565-.783 2.459-.783.67 0 1.118.112 1.453.224l-.67 2.906zm9.836-3.13c1.117 0 2.011.224 2.682.783.67.558 1.118 1.229 1.453 2.123.223-.447.559-.894 1.117-1.341.448-.447 1.006-.782 1.677-1.118.67-.335 1.341-.447 2.012-.447 1.23 0 2.123.224 2.794.783.67.558 1.117 1.229 1.341 2.011.224.894.447 1.789.447 2.906v8.27h-2.794V19c0-1.006-.224-1.788-.559-2.459-.335-.67-1.118-.894-2.123-.894-1.006 0-1.789.335-2.46 1.006-.67.67-1.005 1.453-1.005 2.347v8.159h-2.682V19c0-1.006-.224-1.788-.671-2.459-.447-.67-1.118-.894-2.012-.894-.67 0-1.23.112-1.788.447a3.98 3.98 0 00-1.23 1.118c-.335.447-.447 1.006-.447 1.564v8.271h-2.682V13.412h2.682v2.235a5.174 5.174 0 011.789-1.676c.67-.56 1.564-.783 2.459-.783zm18.888-2.794c-.56 0-1.006-.112-1.341-.447-.336-.335-.447-.67-.447-1.23 0-.446.111-.782.447-1.117a1.85 1.85 0 011.34-.559c.56 0 1.007.112 1.342.447.335.336.447.67.447 1.23 0 .447-.112.782-.447 1.23-.224.334-.67.446-1.341.446zm1.34 16.765h-2.681V13.412h2.682v13.747zm11.289-14.083c1.23 0 2.235.224 2.906.783.67.559 1.118 1.23 1.453 2.012.224.894.447 1.788.447 2.794v8.382h-2.682v-8.159c0-.67-.112-1.23-.224-1.788-.223-.559-.447-.894-.894-1.23-.447-.335-1.006-.446-1.788-.335-.67 0-1.341.112-1.9.447-.559.336-1.006.67-1.23 1.23-.335.447-.447 1.006-.447 1.564v8.271H111.1V13.412h2.682v2.123a5.174 5.174 0 011.789-1.676 4.667 4.667 0 012.57-.783zm17.771 8.606v-8.27h2.682v13.747h-2.682v-2.235a5.174 5.174 0 01-1.788 1.676c-.783.447-1.677.782-2.795.782-1.453 0-2.57-.447-3.464-1.453-.894-1.005-1.341-2.347-1.341-4.023v-8.494h2.682v7.712c0 .67.112 1.34.335 1.9.224.558.559 1.117 1.006 1.452.447.336 1.118.56 1.788.56a3.91 3.91 0 002.46-.895c.67-.559 1.117-1.453 1.117-2.459zm14.306-4.694a6.511 6.511 0 00-1.677-1.23c-.67-.334-1.23-.446-1.676-.446-.336 0-.783 0-1.118.112-.335.111-.67.223-.894.447-.224.223-.335.558-.335 1.005 0 .671.335 1.118.894 1.342a21.1 21.1 0 002.012.67c.67.224 1.452.447 2.123.67.67.336 1.23.671 1.677 1.23.447.56.67 1.341.67 2.347 0 .894-.223 1.565-.67 2.236a5.066 5.066 0 01-1.9 1.453c-.783.335-1.565.447-2.348.447-1.005 0-2.011-.224-2.905-.56-1.006-.335-1.789-1.005-2.46-1.787l1.789-1.565c.447.559 1.006 1.006 1.565 1.23.559.335 1.34.446 2.235.446.335 0 .67-.111 1.006-.223.335-.112.559-.336.894-.56.224-.223.335-.558.335-1.005 0-.447-.111-.782-.335-1.006a2.161 2.161 0 00-1.006-.559c-.447-.111-.894-.335-1.341-.447a17.74 17.74 0 01-2.235-.782c-.67-.335-1.342-.782-1.789-1.341-.447-.56-.67-1.341-.67-2.347 0-.783.223-1.565.67-2.124.447-.559 1.118-1.006 1.789-1.341.782-.335 1.564-.447 2.347-.447.782 0 1.676.223 2.682.559 1.006.335 1.788.894 2.347 1.676l-1.676 1.9zm13.523-8.158c1.453 0 2.683.223 3.688.67 1.118.447 2.012 1.118 2.683 2.012.67.894 1.23 1.788 1.564 2.906.336 1.117.56 2.235.56 3.464 0 1.677-.336 3.242-1.007 4.583-.67 1.34-1.564 2.459-2.905 3.353-1.23.782-2.795 1.23-4.695 1.23h-7.04V8.828h7.152zm-.112 15.535c1.342 0 2.46-.336 3.353-.894.894-.56 1.453-1.342 1.9-2.347.447-1.006.56-2.012.56-3.242a9.176 9.176 0 00-.56-3.13c-.447-1.005-1.006-1.787-1.9-2.346-.894-.559-2.011-.894-3.353-.894h-4.247v12.853h4.247zM182.406 8.83c1.788 0 3.13.335 4.023 1.229.895.782 1.342 1.9 1.342 3.465 0 .782-.224 1.564-.56 2.235-.335.67-1.005 1.117-1.787 1.565.558.223 1.117.447 1.564.894.447.335.894.894 1.23 1.453.335.558.447 1.34.447 2.235 0 1.118-.224 1.9-.56 2.682-.334.67-.893 1.23-1.452 1.677-.559.447-1.23.67-2.012.894-.67.112-1.453.223-2.123.223h-7.936V8.83h7.824zm-.447 2.682H177.6v4.806h4.694c.67 0 1.341-.224 1.9-.67.559-.448.782-1.007.782-1.79 0-.893-.335-1.452-.894-1.9-.558-.223-1.34-.446-2.123-.446zm.335 7.6h-4.806v5.253h4.918c1.006 0 1.788-.224 2.459-.67.67-.448.894-1.119.894-2.013 0-.67-.224-1.23-.559-1.564-.335-.336-.782-.67-1.341-.783-.447-.111-1.006-.223-1.565-.223z" fill="#FFF"/></g></svg>